  0
SECTION
  2
HEADER
  9
$ACADVER
  1
AC1024
  9
$ACADMAINTVER
 70
6
  9
$DWGCODEPAGE
  3
ANSI_1252
  9
$LASTSAVEDBY
  1
ezdxf
  9
$INSBASE
 10
0.0
 20
0.0
 30
0.0
  9
$EXTMIN
 10
1e+20
 20
1e+20
 30
1e+20
  9
$EXTMAX
 10
-1e+20
 20
-1e+20
 30
-1e+20
  9
$LIMMIN
 10
0.0
 20
0.0
  9
$LIMMAX
 10
420.0
 20
297.0
  9
$ORTHOMODE
 70
0
  9
$REGENMODE
 70
1
  9
$FILLMODE
 70
1
  9
$QTEXTMODE
 70
0
  9
$MIRRTEXT
 70
1
  9
$LTSCALE
 40
1.0
  9
$ATTMODE
 70
1
  9
$TEXTSIZE
 40
2.5
  9
$TRACEWID
 40
1.0
  9
$TEXTSTYLE
  7
Standard
  9
$CLAYER
  8
0
  9
$CELTYPE
  6
ByLayer
  9
$CECOLOR
 62
256
  9
$CELTSCALE
 40
1.0
  9
$DISPSILH
 70
0
  9
$DIMSCALE
 40
1.0
  9
$DIMASZ
 40
2.5
  9
$DIMEXO
 40
0.625
  9
$DIMDLI
 40
3.75
  9
$DIMRND
 40
0.0
  9
$DIMDLE
 40
0.0
  9
$DIMEXE
 40
1.25
  9
$DIMTP
 40
0.0
  9
$DIMTM
 40
0.0
  9
$DIMTXT
 40
2.5
  9
$DIMCEN
 40
2.5
  9
$DIMTSZ
 40
0.0
  9
$DIMTOL
 70
0
  9
$DIMLIM
 70
0
  9
$DIMTIH
 70
0
  9
$DIMTOH
 70
0
  9
$DIMSE1
 70
0
  9
$DIMSE2
 70
0
  9
$DIMTAD
 70
1
  9
$DIMZIN
 70
8
  9
$DIMBLK
  1

  9
$DIMASO
 70
1
  9
$DIMSHO
 70
1
  9
$DIMPOST
  1

  9
$DIMAPOST
  1

  9
$DIMALT
 70
0
  9
$DIMALTD
 70
3
  9
$DIMALTF
 40
0.03937007874
  9
$DIMLFAC
 40
1.0
  9
$DIMTOFL
 70
1
  9
$DIMTVP
 40
0.0
  9
$DIMTIX
 70
0
  9
$DIMSOXD
 70
0
  9
$DIMSAH
 70
0
  9
$DIMBLK1
  1

  9
$DIMBLK2
  1

  9
$DIMSTYLE
  2
ISO-25
  9
$DIMCLRD
 70
0
  9
$DIMCLRE
 70
0
  9
$DIMCLRT
 70
0
  9
$DIMTFAC
 40
1.0
  9
$DIMGAP
 40
0.625
  9
$DIMJUST
 70
0
  9
$DIMSD1
 70
0
  9
$DIMSD2
 70
0
  9
$DIMTOLJ
 70
0
  9
$DIMTZIN
 70
8
  9
$DIMALTZ
 70
0
  9
$DIMALTTZ
 70
0
  9
$DIMUPT
 70
0
  9
$DIMDEC
 70
2
  9
$DIMTDEC
 70
2
  9
$DIMALTU
 70
2
  9
$DIMALTTD
 70
3
  9
$DIMTXSTY
  7
Standard
  9
$DIMAUNIT
 70
0
  9
$DIMADEC
 70
0
  9
$DIMALTRND
 40
0.0
  9
$DIMAZIN
 70
0
  9
$DIMDSEP
 70
44
  9
$DIMATFIT
 70
3
  9
$DIMFRAC
 70
0
  9
$DIMLDRBLK
  1

  9
$DIMLUNIT
 70
2
  9
$DIMLWD
 70
-2
  9
$DIMLWE
 70
-2
  9
$DIMTMOVE
 70
0
  9
$DIMFXL
 40
1.0
  9
$DIMFXLON
 70
0
  9
$DIMJOGANG
 40
0.785398163397
  9
$DIMTFILL
 70
0
  9
$DIMTFILLCLR
 70
0
  9
$DIMARCSYM
 70
0
  9
$DIMLTYPE
  6

  9
$DIMLTEX1
  6

  9
$DIMLTEX2
  6

  9
$DIMTXTDIRECTION
 70
0
  9
$LUNITS
 70
2
  9
$LUPREC
 70
4
  9
$SKETCHINC
 40
1.0
  9
$FILLETRAD
 40
10.0
  9
$AUNITS
 70
0
  9
$AUPREC
 70
2
  9
$MENU
  1
.
  9
$ELEVATION
 40
0.0
  9
$PELEVATION
 40
0.0
  9
$THICKNESS
 40
0.0
  9
$LIMCHECK
 70
0
  9
$CHAMFERA
 40
0.0
  9
$CHAMFERB
 40
0.0
  9
$CHAMFERC
 40
0.0
  9
$CHAMFERD
 40
0.0
  9
$SKPOLY
 70
0
  9
$TDCREATE
 40
2460647.439050926
  9
$TDUCREATE
 40
2458532.153996898
  9
$TDUPDATE
 40
2460647.439050926
  9
$TDUUPDATE
 40
2458532.1544311
  9
$TDINDWG
 40
0.0
  9
$TDUSRTIMER
 40
0.0
  9
$USRTIMER
 70
1
  9
$ANGBASE
 50
0.0
  9
$ANGDIR
 70
0
  9
$PDMODE
 70
0
  9
$PDSIZE
 40
0.0
  9
$PLINEWID
 40
0.0
  9
$SPLFRAME
 70
0
  9
$SPLINETYPE
 70
6
  9
$SPLINESEGS
 70
8
  9
$HANDSEED
  5
52
  9
$SURFTAB1
 70
6
  9
$SURFTAB2
 70
6
  9
$SURFTYPE
 70
6
  9
$SURFU
 70
6
  9
$SURFV
 70
6
  9
$UCSBASE
  2

  9
$UCSNAME
  2

  9
$UCSORG
 10
0.0
 20
0.0
 30
0.0
  9
$UCSXDIR
 10
1.0
 20
0.0
 30
0.0
  9
$UCSYDIR
 10
0.0
 20
1.0
 30
0.0
  9
$UCSORTHOREF
  2

  9
$UCSORTHOVIEW
 70
0
  9
$UCSORGTOP
 10
0.0
 20
0.0
 30
0.0
  9
$UCSORGBOTTOM
 10
0.0
 20
0.0
 30
0.0
  9
$UCSORGLEFT
 10
0.0
 20
0.0
 30
0.0
  9
$UCSORGRIGHT
 10
0.0
 20
0.0
 30
0.0
  9
$UCSORGFRONT
 10
0.0
 20
0.0
 30
0.0
  9
$UCSORGBACK
 10
0.0
 20
0.0
 30
0.0
  9
$PUCSBASE
  2

  9
$PUCSNAME
  2

  9
$PUCSORG
 10
0.0
 20
0.0
 30
0.0
  9
$PUCSXDIR
 10
1.0
 20
0.0
 30
0.0
  9
$PUCSYDIR
 10
0.0
 20
1.0
 30
0.0
  9
$PUCSORTHOREF
  2

  9
$PUCSORTHOVIEW
 70
0
  9
$PUCSORGTOP
 10
0.0
 20
0.0
 30
0.0
  9
$PUCSORGBOTTOM
 10
0.0
 20
0.0
 30
0.0
  9
$PUCSORGLEFT
 10
0.0
 20
0.0
 30
0.0
  9
$PUCSORGRIGHT
 10
0.0
 20
0.0
 30
0.0
  9
$PUCSORGFRONT
 10
0.0
 20
0.0
 30
0.0
  9
$PUCSORGBACK
 10
0.0
 20
0.0
 30
0.0
  9
$USERI1
 70
0
  9
$USERI2
 70
0
  9
$USERI3
 70
0
  9
$USERI4
 70
0
  9
$USERI5
 70
0
  9
$USERR1
 40
0.0
  9
$USERR2
 40
0.0
  9
$USERR3
 40
0.0
  9
$USERR4
 40
0.0
  9
$USERR5
 40
0.0
  9
$WORLDVIEW
 70
1
  9
$SHADEDGE
 70
3
  9
$SHADEDIF
 70
70
  9
$TILEMODE
 70
1
  9
$MAXACTVP
 70
64
  9
$PINSBASE
 10
0.0
 20
0.0
 30
0.0
  9
$PLIMCHECK
 70
0
  9
$PEXTMIN
 10
1e+20
 20
1e+20
 30
1e+20
  9
$PEXTMAX
 10
-1e+20
 20
-1e+20
 30
-1e+20
  9
$PLIMMIN
 10
0.0
 20
0.0
  9
$PLIMMAX
 10
420.0
 20
297.0
  9
$UNITMODE
 70
0
  9
$VISRETAIN
 70
1
  9
$PLINEGEN
 70
0
  9
$PSLTSCALE
 70
1
  9
$TREEDEPTH
 70
3020
  9
$CMLSTYLE
  2
Standard
  9
$CMLJUST
 70
0
  9
$CMLSCALE
 40
20.0
  9
$PROXYGRAPHICS
 70
1
  9
$MEASUREMENT
 70
1
  9
$CELWEIGHT
370
-1
  9
$ENDCAPS
280
0
  9
$JOINSTYLE
280
0
  9
$LWDISPLAY
290
0
  9
$INSUNITS
 70
6
  9
$HYPERLINKBASE
  1

  9
$STYLESHEET
  1

  9
$XEDIT
290
1
  9
$CEPSNTYPE
380
0
  9
$PSTYLEMODE
290
1
  9
$FINGERPRINTGUID
  2
{A209307C-B196-4058-B58C-845FB3CB97A9}
  9
$VERSIONGUID
  2
{0E27A43F-A8B5-4DD4-80CC-4FA54DD21601}
  9
$EXTNAMES
290
1
  9
$PSVPSCALE
 40
0.0
  9
$OLESTARTUP
290
0
  9
$SORTENTS
280
127
  9
$INDEXCTL
280
0
  9
$HIDETEXT
280
1
  9
$XCLIPFRAME
280
1
  9
$HALOGAP
280
0
  9
$OBSCOLOR
 70
257
  9
$OBSLTYPE
280
0
  9
$INTERSECTIONDISPLAY
280
0
  9
$INTERSECTIONCOLOR
 70
257
  9
$DIMASSOC
280
2
  9
$PROJECTNAME
  1

  9
$CAMERADISPLAY
290
0
  9
$LENSLENGTH
 40
50.0
  9
$CAMERAHEIGHT
 40
0.0
  9
$STEPSPERSEC
 40
24.0
  9
$STEPSIZE
 40
100.0
  9
$3DDWFPREC
 40
2.0
  9
$PSOLWIDTH
 40
0.005
  9
$PSOLHEIGHT
 40
0.08
  9
$LOFTANG1
 40
1.570796326795
  9
$LOFTANG2
 40
1.570796326795
  9
$LOFTMAG1
 40
0.0
  9
$LOFTMAG2
 40
0.0
  9
$LOFTPARAM
 70
7
  9
$LOFTNORMALS
280
1
  9
$LATITUDE
 40
37.795
  9
$LONGITUDE
 40
-122.394
  9
$NORTHDIRECTION
 40
0.0
  9
$TIMEZONE
 70
-8000
  9
$LIGHTGLYPHDISPLAY
280
1
  9
$TILEMODELIGHTSYNCH
280
1
  9
$CMATERIAL
347
20
  9
$SOLIDHIST
280
0
  9
$SHOWHIST
280
1
  9
$DWFFRAME
280
2
  9
$DGNFRAME
280
2
  9
$REALWORLDSCALE
290
1
  9
$INTERFERECOLOR
 62
256
  9
$CSHADOW
280
0
  9
$SHADOWPLANELOCATION
 40
0.0
  0
ENDSEC
  0
SECTION
  2
CLASSES
  0
CLASS
  1
ACDBDICTIONARYWDFLT
  2
AcDbDictionaryWithDefault
  3
ObjectDBX Classes
 90
0
 91
0
280
0
281
0
  0
CLASS
  1
SUN
  2
AcDbSun
  3
SCENEOE
 90
1153
 91
0
280
0
281
0
  0
CLASS
  1
VISUALSTYLE
  2
AcDbVisualStyle
  3
ObjectDBX Classes
 90
4095
 91
0
280
0
281
0
  0
CLASS
  1
MATERIAL
  2
AcDbMaterial
  3
ObjectDBX Classes
 90
1153
 91
0
280
0
281
0
  0
CLASS
  1
SCALE
  2
AcDbScale
  3
ObjectDBX Classes
 90
1153
 91
0
280
0
281
0
  0
CLASS
  1
TABLESTYLE
  2
AcDbTableStyle
  3
ObjectDBX Classes
 90
4095
 91
0
280
0
281
0
  0
CLASS
  1
MLEADERSTYLE
  2
AcDbMLeaderStyle
  3
ACDB_MLEADERSTYLE_CLASS
 90
4095
 91
0
280
0
281
0
  0
CLASS
  1
DICTIONARYVAR
  2
AcDbDictionaryVar
  3
ObjectDBX Classes
 90
0
 91
0
280
0
281
0
  0
CLASS
  1
CELLSTYLEMAP
  2
AcDbCellStyleMap
  3
ObjectDBX Classes
 90
1152
 91
0
280
0
281
0
  0
CLASS
  1
MENTALRAYRENDERSETTINGS
  2
AcDbMentalRayRenderSettings
  3
SCENEOE
 90
1024
 91
0
280
0
281
0
  0
CLASS
  1
ACDBDETAILVIEWSTYLE
  2
AcDbDetailViewStyle
  3
ObjectDBX Classes
 90
1025
 91
0
280
0
281
0
  0
CLASS
  1
ACDBSECTIONVIEWSTYLE
  2
AcDbSectionViewStyle
  3
ObjectDBX Classes
 90
1025
 91
0
280
0
281
0
  0
CLASS
  1
RASTERVARIABLES
  2
AcDbRasterVariables
  3
ISM
 90
0
 91
0
280
0
281
0
  0
CLASS
  1
ACDBPLACEHOLDER
  2
AcDbPlaceHolder
  3
ObjectDBX Classes
 90
0
 91
0
280
0
281
0
  0
CLASS
  1
LAYOUT
  2
AcDbLayout
  3
ObjectDBX Classes
 90
0
 91
0
280
0
281
0
  0
ENDSEC
  0
SECTION
  2
TABLES
  0
TABLE
  2
VPORT
  5
8
330
0
100
AcDbSymbolTable
 70
1
  0
VPORT
  5
23
330
8
100
AcDbSymbolTableRecord
100
AcDbViewportTableRecord
  2
*Active
 70
0
 10
0.0
 20
0.0
 11
1.0
 21
1.0
 12
0.0
 22
0.0
 13
0.0
 23
0.0
 14
0.5
 24
0.5
 15
0.5
 25
0.5
 16
0.0
 26
0.0
 36
1.0
 17
0.0
 27
0.0
 37
0.0
 40
1000.0
 41
1.34
 42
50.0
 43
0.0
 44
0.0
 50
0.0
 51
0.0
 71
0
 72
1000
 73
1
 74
3
 75
0
 76
0
 77
0
 78
0
281
0
 65
0
146
0.0
  0
ENDTAB
  0
TABLE
  2
LTYPE
  5
2
330
0
100
AcDbSymbolTable
 70
3
  0
LTYPE
  5
24
330
2
100
AcDbSymbolTableRecord
100
AcDbLinetypeTableRecord
  2
ByBlock
 70
0
  3

 72
65
 73
0
 40
0.0
  0
LTYPE
  5
25
330
2
100
AcDbSymbolTableRecord
100
AcDbLinetypeTableRecord
  2
ByLayer
 70
0
  3

 72
65
 73
0
 40
0.0
  0
LTYPE
  5
26
330
2
100
AcDbSymbolTableRecord
100
AcDbLinetypeTableRecord
  2
Continuous
 70
0
  3

 72
65
 73
0
 40
0.0
  0
ENDTAB
  0
TABLE
  2
LAYER
  5
1
330
0
100
AcDbSymbolTable
 70
2
  0
LAYER
  5
27
330
1
100
AcDbSymbolTableRecord
100
AcDbLayerTableRecord
  2
0
 70
0
 62
7
  6
Continuous
370
-3
390
13
347
21
  0
LAYER
  5
28
330
1
100
AcDbSymbolTableRecord
100
AcDbLayerTableRecord
  2
Defpoints
 70
0
 62
7
  6
Continuous
290
0
370
-3
390
13
347
21
  0
ENDTAB
  0
TABLE
  2
STYLE
  5
5
330
0
100
AcDbSymbolTable
 70
1
  0
STYLE
  5
29
330
5
100
AcDbSymbolTableRecord
100
AcDbTextStyleTableRecord
  2
Standard
 70
0
 40
0.0
 41
1.0
 50
0.0
 71
0
 42
2.5
  3
txt
  4

  0
ENDTAB
  0
TABLE
  2
VIEW
  5
7
330
0
100
AcDbSymbolTable
 70
0
  0
ENDTAB
  0
TABLE
  2
UCS
  5
6
330
0
100
AcDbSymbolTable
 70
0
  0
ENDTAB
  0
TABLE
  2
APPID
  5
3
330
0
100
AcDbSymbolTable
 70
3
  0
APPID
  5
2A
330
3
100
AcDbSymbolTableRecord
100
AcDbRegAppTableRecord
  2
ACAD
 70
0
  0
APPID
  5
4F
330
3
100
AcDbSymbolTableRecord
100
AcDbRegAppTableRecord
  2
HATCHBACKGROUNDCOLOR
 70
0
  0
APPID
  5
50
330
3
100
AcDbSymbolTableRecord
100
AcDbRegAppTableRecord
  2
EZDXF
 70
0
  0
ENDTAB
  0
TABLE
  2
DIMSTYLE
  5
4
330
0
100
AcDbSymbolTable
 70
1
100
AcDbDimStyleTable
  0
DIMSTYLE
105
2B
330
4
100
AcDbSymbolTableRecord
100
AcDbDimStyleTableRecord
  2
Standard
 70
0
 40
1.0
 41
2.5
 42
0.625
 43
3.75
 44
1.25
 45
0.0
 46
0.0
 47
0.0
 48
0.0
 49
2.5
140
2.5
141
2.5
142
0.0
143
0.03937007874
144
1.0
145
0.0
146
1.0
147
0.625
148
0.0
 69
0
 70
0
 71
0
 72
0
 73
0
 74
0
 75
0
 76
0
 77
1
 78
8
 79
3
170
0
171
3
172
1
173
0
174
0
175
0
176
0
177
0
178
0
179
2
271
2
272
2
273
2
274
3
275
0
276
0
277
2
278
44
279
0
280
0
281
0
282
0
283
0
284
8
285
0
286
0
288
0
289
3
290
0
371
-2
372
-2
  0
ENDTAB
  0
TABLE
  2
BLOCK_RECORD
  5
9
330
0
100
AcDbSymbolTable
 70
2
  0
BLOCK_RECORD
  5
17
330
9
100
AcDbSymbolTableRecord
100
AcDbBlockTableRecord
  2
*Model_Space
340
1A
 70
0
280
1
281
0
  0
BLOCK_RECORD
  5
1B
330
9
100
AcDbSymbolTableRecord
100
AcDbBlockTableRecord
  2
*Paper_Space
340
1E
 70
0
280
1
281
0
  0
ENDTAB
  0
ENDSEC
  0
SECTION
  2
BLOCKS
  0
BLOCK
  5
18
330
17
100
AcDbEntity
  8
0
100
AcDbBlockBegin
  2
*Model_Space
 70
0
 10
0.0
 20
0.0
 30
0.0
  3
*Model_Space
  1

  0
ENDBLK
  5
19
330
17
100
AcDbEntity
  8
0
100
AcDbBlockEnd
  0
BLOCK
  5
1C
330
1B
100
AcDbEntity
  8
0
100
AcDbBlockBegin
  2
*Paper_Space
 70
0
 10
0.0
 20
0.0
 30
0.0
  3
*Paper_Space
  1

  0
ENDBLK
  5
1D
330
1B
100
AcDbEntity
  8
0
100
AcDbBlockEnd
  0
ENDSEC
  0
SECTION
  2
ENTITIES
  0
LWPOLYLINE
  5
2F
330
17
100
AcDbEntity
  8
0
100
AcDbPolyline
 90
5
 70
0
 10
-18.307852804032308
 20
48.30785280403231
 10
318.30785280403234
 20
48.30785280403231
 10
318.30785280403234
 20
-18.307852804032308
 10
-18.307852804032308
 20
-18.307852804032308
 10
-18.307852804032308
 20
48.30785280403231
  0
LWPOLYLINE
  5
30
330
17
100
AcDbEntity
  8
0
100
AcDbPolyline
 90
45
 70
0
 10
55.15417968526292
 20
-0.1939434145713733
 10
55.15422700683785
 20
-0.19418131619388201
 10
55.30346729289047
 20
-0.554479238836518
 10
55.30357462785794
 20
-0.5546398769673702
 10
55.579334719257126
 20
-0.830399968363586
 10
55.579495357388026
 20
-0.8305073033310867
 10
55.939793280006846
 20
-0.9797475893747556
 10
55.94003118162942
 20
-0.9797949109497063
 10
56.13502372306534
 20
-0.999
 10
57.86497627693466
 20
-0.999
 10
58.05996881837058
 20
-0.9797949109497064
 10
58.060206719993154
 20
-0.9797475893747557
 10
58.42050464261198
 20
-0.830507303331087
 10
58.42066528074287
 20
-0.8303999683635923
 10
58.69642537214206
 20
-0.5546398769673702
 10
58.69653270710953
 20
-0.554479238836518
 10
58.84577299316215
 20
-0.19418131619388196
 10
58.84582031473708
 20
-0.19394341457137323
 10
58.86492207380871
 20
0.0
 10
57.86602540378444
 20
0.0
 10
57.86602540378444
 20
30.0
 10
58.86492207380871
 20
30.0
 10
58.845820314737246
 20
30.193943414570533
 10
58.84577299316231
 20
30.19418131619304
 10
58.69653270710697
 20
30.55447923884035
 10
58.69642537213949
 20
30.554639876971212
 10
58.42066528074515
 20
30.830399968362073
 10
58.42050464261428
 20
30.830507303329547
 10
58.060206719996735
 20
30.97974758937405
 10
58.05996881837419
 20
30.979794910948993
 10
57.86497627693467
 20
30.999000000000002
 10
56.13502372306533
 20
30.999000000000002
 10
55.94003118162581
 20
30.979794910948993
 10
55.939793280003265
 20
30.97974758937405
 10
55.57949535738572
 20
30.830507303329547
 10
55.57933471925485
 20
30.830399968362073
 10
55.30357462786051
 20
30.554639876971212
 10
55.30346729289303
 20
30.55447923884035
 10
55.15422700683769
 20
30.19418131619304
 10
55.154179685262754
 20
30.193943414570533
 10
55.13507792619129
 20
30.0
 10
56.13397459621556
 20
30.0
 10
56.13397459621556
 20
0.0
 10
55.13507792619129
 20
0.0
 10
55.15417968526292
 20
-0.1939434145713733
  0
LWPOLYLINE
  5
31
330
17
100
AcDbEntity
  8
0
100
AcDbPolyline
 90
45
 70
0
 10
109.15422700684483
 20
-0.19418131622895954
 10
109.30346729287365
 20
-0.5544792388113378
 10
109.30357462784112
 20
-0.5546398769421977
 10
109.57933471926555
 20
-0.8303999683692239
 10
109.5794953573964
 20
-0.830507303336693
 10
109.93979328000682
 20
-0.9797475893747543
 10
109.94003118162942
 20
-0.9797949109497077
 10
110.13502372306533
 20
-0.999
 10
111.86497627693467
 20
-0.999
 10
112.05996881837056
 20
-0.9797949109497078
 10
112.06020671999316
 20
-0.9797475893747544
 10
112.4205046426036
 20
-0.830507303336693
 10
112.42066528073445
 20
-0.8303999683692239
 10
112.69642537215888
 20
-0.5546398769421977
 10
112.69653270712635
 20
-0.5544792388113378
 10
112.84577299315517
 20
-0.19418131622895948
 10
112.84582031473013
 20
-0.19394341460632972
 10
112.8649220738087
 20
0.0
 10
111.86602540378443
 20
0.0
 10
111.86602540378443
 20
30.0
 10
112.8649220738087
 20
30.0
 10
112.8458203147303
 20
30.193943414605492
 10
112.84577299315534
 20
30.194181316228118
 10
112.69653270712381
 20
30.55447923881517
 10
112.69642537215633
 20
30.55463987694604
 10
112.42066528073677
 20
30.83039996836767
 10
112.42050464260585
 20
30.830507303335185
 10
112.06020671999676
 20
30.979747589374046
 10
112.05996881837419
 20
30.979794910948993
 10
111.86497627693468
 20
30.999000000000002
 10
110.13502372306532
 20
30.999000000000002
 10
109.94003118162581
 20
30.979794910948993
 10
109.93979328000324
 20
30.979747589374046
 10
109.57949535739415
 20
30.830507303335185
 10
109.57933471926323
 20
30.83039996836767
 10
109.30357462784367
 20
30.55463987694604
 10
109.30346729287619
 20
30.55447923881517
 10
109.15422700684466
 20
30.194181316228118
 10
109.1541796852697
 20
30.193943414605492
 10
109.1350779261913
 20
30.0
 10
110.13397459621557
 20
30.0
 10
110.13397459621557
 20
0.0
 10
109.1350779261913
 20
0.0
 10
109.15417968526987
 20
-0.19394341460632977
 10
109.15422700684483
 20
-0.19418131622895954
  0
LWPOLYLINE
  5
32
330
17
100
AcDbEntity
  8
0
100
AcDbPolyline
 90
45
 70
0
 10
160.15422700684482
 20
-0.19418131622895962
 10
160.30346729287362
 20
-0.5544792388113378
 10
160.30357462784113
 20
-0.5546398769422237
 10
160.57933471924872
 20
-0.8303999683579832
 10
160.57949535737956
 20
-0.8305073033254453
 10
160.9397932800138
 20
-0.97974758937614
 10
160.9400311816364
 20
-0.9797949109510967
 10
161.1350237230653
 20
-0.999
 10
162.8649762769347
 20
-0.999
 10
163.0599688183636
 20
-0.9797949109510968
 10
163.0602067199862
 20
-0.9797475893761401
 10
163.42050464262044
 20
-0.8305073033254452
 10
163.42066528075128
 20
-0.8303999683579831
 10
163.69642537215887
 20
-0.5546398769422237
 10
163.69653270712638
 20
-0.5544792388113378
 10
163.84577299315518
 20
-0.19418131622895957
 10
163.84582031473016
 20
-0.1939434146061882
 10
163.8649220738087
 20
0.0
 10
162.86602540378445
 20
0.0
 10
162.86602540378445
 20
30.0
 10
163.8649220738087
 20
30.0
 10
163.84582031473033
 20
30.19394341460535
 10
163.84577299315535
 20
30.194181316228118
 10
163.6965327071238
 20
30.55447923881517
 10
163.69642537215628
 20
30.554639876946066
 10
163.42066528075358
 20
30.830399968356456
 10
163.42050464262275
 20
30.830507303323916
 10
163.06020671998976
 20
30.979747589375428
 10
163.05996881836717
 20
30.979794910950385
 10
162.8649762769347
 20
30.999000000000002
 10
161.1350237230653
 20
30.999000000000002
 10
160.94003118163283
 20
30.979794910950385
 10
160.93979328001024
 20
30.979747589375428
 10
160.57949535737725
 20
30.830507303323916
 10
160.57933471924642
 20
30.830399968356456
 10
160.30357462784372
 20
30.554639876946066
 10
160.3034672928762
 20
30.55447923881517
 10
160.15422700684465
 20
30.194181316228118
 10
160.15417968526967
 20
30.19394341460535
 10
160.1350779261913
 20
30.0
 10
161.13397459621555
 20
30.0
 10
161.13397459621555
 20
0.0
 10
160.1350779261913
 20
0.0
 10
160.15417968526984
 20
-0.19394341460618825
 10
160.15422700684482
 20
-0.19418131622895962
  0
LWPOLYLINE
  5
33
330
17
100
AcDbEntity
  8
0
100
AcDbPolyline
 90
17
 70
0
 10
-8.309698831278217
 20
-6.956708580912725
 10
-7.767766952966369
 20
-7.767766952966369
 10
-6.956708580912724
 20
-8.309698831278217
 10
-6.0
 20
-8.5
 10
-5.043291419087275
 20
-8.309698831278217
 10
-4.232233047033631
 20
-7.767766952966369
 10
-3.690301168721783
 20
-6.956708580912725
 10
-3.5
 20
-6.0
 10
-3.690301168721784
 20
-5.043291419087274
 10
-4.232233047033631
 20
-4.232233047033631
 10
-5.043291419087275
 20
-3.6903011687217835
 10
-6.000000000000001
 20
-3.5
 10
-6.956708580912726
 20
-3.690301168721784
 10
-7.767766952966369
 20
-4.232233047033631
 10
-8.309698831278217
 20
-5.043291419087276
 10
-8.5
 20
-6.0
 10
-8.309698831278217
 20
-6.956708580912725
  0
LWPOLYLINE
  5
34
330
17
100
AcDbEntity
  8
0
100
AcDbPolyline
 90
17
 70
0
 10
303.69030116872176
 20
-6.956708580912725
 10
304.2322330470336
 20
-7.767766952966369
 10
305.04329141908727
 20
-8.309698831278217
 10
306.0
 20
-8.5
 10
306.95670858091273
 20
-8.309698831278217
 10
307.7677669529664
 20
-7.767766952966369
 10
308.30969883127824
 20
-6.956708580912725
 10
308.5
 20
-6.0
 10
308.30969883127824
 20
-5.043291419087274
 10
307.7677669529664
 20
-4.232233047033631
 10
306.95670858091273
 20
-3.6903011687217835
 10
306.0
 20
-3.5
 10
305.04329141908727
 20
-3.690301168721784
 10
304.2322330470336
 20
-4.232233047033631
 10
303.69030116872176
 20
-5.043291419087276
 10
303.5
 20
-6.0
 10
303.69030116872176
 20
-6.956708580912725
  0
LWPOLYLINE
  5
35
330
17
100
AcDbEntity
  8
0
100
AcDbPolyline
 90
17
 70
0
 10
-8.309698831278217
 20
35.043291419087275
 10
-7.767766952966369
 20
34.23223304703363
 10
-6.956708580912724
 20
33.69030116872178
 10
-6.0
 20
33.5
 10
-5.043291419087275
 20
33.69030116872178
 10
-4.232233047033631
 20
34.23223304703363
 10
-3.690301168721783
 20
35.043291419087275
 10
-3.5
 20
36.0
 10
-3.690301168721784
 20
36.956708580912725
 10
-4.232233047033631
 20
37.76776695296637
 10
-5.043291419087275
 20
38.30969883127822
 10
-6.000000000000001
 20
38.5
 10
-6.956708580912726
 20
38.30969883127822
 10
-7.767766952966369
 20
37.76776695296637
 10
-8.309698831278217
 20
36.956708580912725
 10
-8.5
 20
36.0
 10
-8.309698831278217
 20
35.043291419087275
  0
LWPOLYLINE
  5
36
330
17
100
AcDbEntity
  8
0
100
AcDbPolyline
 90
17
 70
0
 10
303.69030116872176
 20
35.043291419087275
 10
304.2322330470336
 20
34.23223304703363
 10
305.04329141908727
 20
33.69030116872178
 10
306.0
 20
33.5
 10
306.95670858091273
 20
33.69030116872178
 10
307.7677669529664
 20
34.23223304703363
 10
308.30969883127824
 20
35.043291419087275
 10
308.5
 20
36.0
 10
308.30969883127824
 20
36.956708580912725
 10
307.7677669529664
 20
37.76776695296637
 10
306.95670858091273
 20
38.30969883127822
 10
306.0
 20
38.5
 10
305.04329141908727
 20
38.30969883127822
 10
304.2322330470336
 20
37.76776695296637
 10
303.69030116872176
 20
36.956708580912725
 10
303.5
 20
36.0
 10
303.69030116872176
 20
35.043291419087275
  0
LWPOLYLINE
  5
37
330
17
100
AcDbEntity
  8
0
100
AcDbPolyline
 90
11
 70
0
 10
5.736710937500002
 20
-9.21453125
 10
7.017773437500001
 20
-5.907031249999999
 10
6.5779296875
 20
-5.907031249999999
 10
5.8435546875
 20
-8.009375
 10
5.115429687500001
 20
-5.907031249999999
 10
4.6419921875000005
 20
-5.907031249999999
 10
5.6263671875000005
 20
-8.5046875
 10
5.3738984375
 20
-9.03078125
 10
4.932085937500001
 20
-9.1109375
 10
5.075882812500001
 20
-9.5474921875
 10
5.736710937500002
 20
-9.21453125
  0
LWPOLYLINE
  5
38
330
17
100
AcDbEntity
  8
0
100
AcDbPolyline
 90
15
 70
0
 10
3.76591796875
 20
-6.8546875
 10
2.27529296875
 20
-7.215625
 10
1.9979804687499998
 20
-8.05778125
 10
2.5376992187500003
 20
-8.52521875
 10
3.5159492187500003
 20
-8.3853125
 10
3.8026367187500005
 20
-8.18046875
 10
3.89013671875
 20
-8.5
 10
4.3495117187500005
 20
-8.5
 10
4.15908203125
 20
-6.3196015625
 10
3.65779296875
 20
-5.8984375
 10
2.6182617187500004
 20
-5.940625
 10
2.03701171875
 20
-6.646875
 10
3.2695117187499996
 20
-6.2184375
 10
3.6882617187499998
 20
-6.41134375
 10
3.76591796875
 20
-6.8546875
  0
LWPOLYLINE
  5
39
330
17
100
AcDbEntity
  8
0
100
AcDbPolyline
 90
14
 70
0
 10
7.650546875
 20
-6.1414296875
 10
7.247703125000001
 20
-7.09778125
 10
7.577929687500001
 20
-8.20859375
 10
8.568976562500001
 20
-8.5563984375
 10
9.467187500000001
 20
-8.0744140625
 10
9.6201171875
 20
-7.72109375
 10
9.1662109375
 20
-7.66484375
 10
8.7861328125
 20
-8.134859375
 10
8.1845703125
 20
-8.140234375
 10
7.705796875000001
 20
-7.3990937500000005
 10
9.632617187500001
 20
-7.315625
 10
9.3052734375
 20
-6.20234375
 10
8.5574296875
 20
-5.851976562499999
 10
7.650546875
 20
-6.1414296875
  0
LWPOLYLINE
  5
3A
330
17
100
AcDbEntity
  8
0
100
AcDbPolyline
 90
10
 70
0
 10
10.167285156250001
 20
-5.907031249999999
 10
10.167285156250001
 20
-8.5
 10
10.606347656250001
 20
-8.5
 10
10.729160156250002
 20
-6.5173125
 10
11.42431640625
 20
-6.39765625
 10
11.57587890625
 20
-5.98984375
 10
11.00531640625
 20
-5.862562499999999
 10
10.622285156250003
 20
-6.197218749999999
 10
10.56259765625
 20
-5.907031249999999
 10
10.167285156250001
 20
-5.907031249999999
  0
LWPOLYLINE
  5
3B
330
17
100
AcDbEntity
  8
0
100
AcDbPolyline
 90
9
 70
0
 10
15.42621875
 20
-7.0911015625000005
 10
15.105726562500003
 20
-5.3143125
 10
14.591046875
 20
-4.94815625
 10
13.849765625000002
 20
-4.98190625
 10
13.151265625
 20
-6.0624062499999996
 10
13.458203125
 20
-8.18984375
 10
14.072703125000004
 20
-8.54609375
 10
14.868710937500001
 20
-8.390078125
 10
15.42621875
 20
-7.0911015625000005
  0
LWPOLYLINE
  5
3C
330
17
100
AcDbEntity
  8
0
100
AcDbPolyline
 90
7
 70
0
 10
1.6023437500000002
 20
-8.5
 10
1.6023437500000002
 20
-8.07734375
 10
-0.16015625
 20
-8.07734375
 10
-0.16015625
 20
-4.92109375
 10
-0.63359375
 20
-4.92109375
 10
-0.63359375
 20
-8.5
 10
1.6023437500000002
 20
-8.5
  0
LWPOLYLINE
  5
3D
330
17
100
AcDbEntity
  8
0
100
AcDbPolyline
 90
45
 70
0
 10
230.15417968526984
 20
-0.19394341460618825
 10
230.15422700684482
 20
-0.19418131622895962
 10
230.30346729287362
 20
-0.5544792388113378
 10
230.30357462784113
 20
-0.5546398769422237
 10
230.57933471924872
 20
-0.8303999683579832
 10
230.57949535737956
 20
-0.8305073033254453
 10
230.9397932800138
 20
-0.97974758937614
 10
230.9400311816364
 20
-0.9797949109510967
 10
231.1350237230653
 20
-0.999
 10
232.8649762769347
 20
-0.999
 10
233.0599688183636
 20
-0.9797949109510968
 10
233.0602067199862
 20
-0.9797475893761401
 10
233.42050464262044
 20
-0.8305073033254452
 10
233.42066528075128
 20
-0.8303999683579831
 10
233.69642537215887
 20
-0.5546398769422237
 10
233.69653270712638
 20
-0.5544792388113378
 10
233.84577299315518
 20
-0.19418131622895957
 10
233.84582031473016
 20
-0.1939434146061882
 10
233.8649220738087
 20
0.0
 10
232.86602540378445
 20
0.0
 10
232.86602540378445
 20
30.0
 10
233.8649220738087
 20
30.0
 10
233.84582031473033
 20
30.19394341460535
 10
233.84577299315535
 20
30.194181316228118
 10
233.6965327071238
 20
30.55447923881517
 10
233.69642537215628
 20
30.554639876946066
 10
233.42066528075358
 20
30.830399968356456
 10
233.42050464262275
 20
30.830507303323916
 10
233.06020671998976
 20
30.979747589375428
 10
233.05996881836717
 20
30.979794910950385
 10
232.8649762769347
 20
30.999000000000002
 10
231.1350237230653
 20
30.999000000000002
 10
230.94003118163283
 20
30.979794910950385
 10
230.93979328001024
 20
30.979747589375428
 10
230.57949535737725
 20
30.830507303323916
 10
230.57933471924642
 20
30.830399968356456
 10
230.30357462784372
 20
30.554639876946066
 10
230.3034672928762
 20
30.55447923881517
 10
230.15422700684465
 20
30.194181316228118
 10
230.15417968526967
 20
30.19394341460535
 10
230.1350779261913
 20
30.0
 10
231.13397459621555
 20
30.0
 10
231.13397459621555
 20
0.0
 10
230.1350779261913
 20
0.0
 10
230.15417968526984
 20
-0.19394341460618825
  0
LWPOLYLINE
  5
3E
330
17
100
AcDbEntity
  8
0
100
AcDbPolyline
 90
45
 70
0
 10
278.154227006817
 20
-0.19418131608885023
 10
278.30346729290727
 20
-0.5544792388616032
 10
278.3035746278749
 20
-0.554639876992705
 10
278.57933471928226
 20
-0.8303999683803276
 10
278.57949535741335
 20
-0.8305073033479717
 10
278.9397932799999
 20
-0.9797475893733573
 10
278.9400311816226
 20
-0.9797949109483298
 10
279.1350237230654
 20
-0.999
 10
280.8649762769346
 20
-0.999
 10
281.0599688183774
 20
-0.9797949109483298
 10
281.0602067200001
 20
-0.9797475893733573
 10
281.42050464258665
 20
-0.8305073033479716
 10
281.42066528071774
 20
-0.8303999683803275
 10
281.6964253721251
 20
-0.554639876992705
 10
281.69653270709273
 20
-0.5544792388616032
 10
281.845772993183
 20
-0.19418131608885017
 10
281.845820314758
 20
-0.19394341446607924
 10
281.8649220738087
 20
0.0
 10
280.8660254037844
 20
0.0
 10
280.8660254037844
 20
30.0
 10
281.8649220738087
 20
30.0
 10
281.84582031475816
 20
30.193943414465245
 10
281.8457729931832
 20
30.194181316088006
 10
281.69653270709006
 20
30.554479238865664
 10
281.6964253721227
 20
30.554639876996376
 10
281.42066528072
 20
30.830399968378803
 10
281.4205046425889
 20
30.830507303346444
 10
281.0602067200037
 20
30.979747589372646
 10
281.059968818381
 20
30.979794910947618
 10
280.8649762769346
 20
30.999000000000002
 10
279.1350237230654
 20
30.999000000000002
 10
278.940031181619
 20
30.979794910947618
 10
278.9397932799963
 20
30.979747589372646
 10
278.5794953574111
 20
30.830507303346444
 10
278.57933471928
 20
30.830399968378803
 10
278.3035746278773
 20
30.554639876996376
 10
278.30346729290994
 20
30.554479238865664
 10
278.1542270068168
 20
30.194181316088006
 10
278.15417968524184
 20
30.193943414465245
 10
278.1350779261913
 20
30.0
 10
279.1339745962156
 20
30.0
 10
279.1339745962156
 20
0.0
 10
278.1350779261913
 20
0.0
 10
278.154179685242
 20
-0.1939434144660793
 10
278.154227006817
 20
-0.19418131608885023
  0
LWPOLYLINE
  5
3F
330
17
100
AcDbEntity
  8
0
100
AcDbPolyline
 90
5
 70
0
 10
323.30785280403234
 20
48.30785280403231
 10
659.923558412097
 20
48.30785280403231
 10
659.923558412097
 20
-18.307852804032308
 10
323.30785280403234
 20
-18.307852804032308
 10
323.30785280403234
 20
48.30785280403231
  0
LWPOLYLINE
  5
40
330
17
100
AcDbEntity
  8
0
100
AcDbPolyline
 90
45
 70
0
 10
396.7698852933276
 20
-0.1939434145713733
 10
396.76993261490253
 20
-0.19418131619388201
 10
396.9191729009551
 20
-0.554479238836518
 10
396.9192802359226
 20
-0.5546398769673702
 10
397.1950403273218
 20
-0.830399968363586
 10
397.1952009654527
 20
-0.8305073033310867
 10
397.5554988880715
 20
-0.9797475893747556
 10
397.5557367896941
 20
-0.9797949109497063
 10
397.75072933113
 20
-0.999
 10
399.48068188499934
 20
-0.999
 10
399.67567442643525
 20
-0.9797949109497064
 10
399.67591232805785
 20
-0.9797475893747557
 10
400.0362102506767
 20
-0.830507303331087
 10
400.03637088880754
 20
-0.8303999683635923
 10
400.31213098020675
 20
-0.5546398769673702
 10
400.3122383151742
 20
-0.554479238836518
 10
400.4614786012268
 20
-0.19418131619388196
 10
400.46152592280174
 20
-0.19394341457137323
 10
400.4806276818734
 20
0.0
 10
399.4817310118491
 20
0.0
 10
399.4817310118491
 20
30.0
 10
400.4806276818734
 20
30.0
 10
400.4615259228019
 20
30.193943414570533
 10
400.461478601227
 20
30.19418131619304
 10
400.3122383151716
 20
30.55447923884035
 10
400.3121309802042
 20
30.554639876971212
 10
400.0363708888098
 20
30.830399968362073
 10
400.03621025067895
 20
30.830507303329547
 10
399.67591232806143
 20
30.97974758937405
 10
399.67567442643883
 20
30.979794910948993
 10
399.48068188499934
 20
30.999000000000002
 10
397.75072933113
 20
30.999000000000002
 10
397.5557367896905
 20
30.979794910948993
 10
397.5554988880679
 20
30.97974758937405
 10
397.1952009654504
 20
30.830507303329547
 10
397.19504032731953
 20
30.830399968362073
 10
396.91928023592516
 20
30.554639876971212
 10
396.91917290095773
 20
30.55447923884035
 10
396.76993261490236
 20
30.19418131619304
 10
396.76988529332743
 20
30.193943414570533
 10
396.75078353425596
 20
30.0
 10
397.74968020428025
 20
30.0
 10
397.74968020428025
 20
0.0
 10
396.75078353425596
 20
0.0
 10
396.7698852933276
 20
-0.1939434145713733
  0
LWPOLYLINE
  5
41
330
17
100
AcDbEntity
  8
0
100
AcDbPolyline
 90
45
 70
0
 10
450.7699326149095
 20
-0.19418131622895954
 10
450.9191729009383
 20
-0.5544792388113378
 10
450.9192802359058
 20
-0.5546398769421977
 10
451.1950403273302
 20
-0.8303999683692239
 10
451.1952009654611
 20
-0.830507303336693
 10
451.5554988880715
 20
-0.9797475893747543
 10
451.5557367896941
 20
-0.9797949109497077
 10
451.75072933113
 20
-0.999
 10
453.48068188499934
 20
-0.999
 10
453.67567442643525
 20
-0.9797949109497078
 10
453.67591232805785
 20
-0.9797475893747544
 10
454.03621025066826
 20
-0.830507303336693
 10
454.0363708887991
 20
-0.8303999683692239
 10
454.31213098022357
 20
-0.5546398769421977
 10
454.31223831519105
 20
-0.5544792388113378
 10
454.4614786012198
 20
-0.19418131622895948
 10
454.4615259227948
 20
-0.19394341460632972
 10
454.4806276818734
 20
0.0
 10
453.4817310118491
 20
0.0
 10
453.4817310118491
 20
30.0
 10
454.4806276818734
 20
30.0
 10
454.461525922795
 20
30.193943414605492
 10
454.46147860122
 20
30.194181316228118
 10
454.3122383151885
 20
30.55447923881517
 10
454.312130980221
 20
30.55463987694604
 10
454.03637088880146
 20
30.83039996836767
 10
454.03621025067054
 20
30.830507303335185
 10
453.67591232806143
 20
30.979747589374046
 10
453.67567442643883
 20
30.979794910948993
 10
453.48068188499934
 20
30.999000000000002
 10
451.75072933113
 20
30.999000000000002
 10
451.5557367896905
 20
30.979794910948993
 10
451.5554988880679
 20
30.979747589374046
 10
451.1952009654588
 20
30.830507303335185
 10
451.1950403273279
 20
30.83039996836767
 10
450.91928023590833
 20
30.55463987694604
 10
450.91917290094085
 20
30.55447923881517
 10
450.76993261490935
 20
30.194181316228118
 10
450.76988529333437
 20
30.193943414605492
 10
450.75078353425596
 20
30.0
 10
451.74968020428025
 20
30.0
 10
451.74968020428025
 20
0.0
 10
450.75078353425596
 20
0.0
 10
450.76988529333454
 20
-0.19394341460632977
 10
450.7699326149095
 20
-0.19418131622895954
  0
LWPOLYLINE
  5
42
330
17
100
AcDbEntity
  8
0
100
AcDbPolyline
 90
45
 70
0
 10
501.7699326149095
 20
-0.19418131622895962
 10
501.9191729009383
 20
-0.5544792388113378
 10
501.91928023590583
 20
-0.5546398769422237
 10
502.1950403273134
 20
-0.8303999683579832
 10
502.1952009654442
 20
-0.8305073033254453
 10
502.55549888807843
 20
-0.97974758937614
 10
502.5557367897011
 20
-0.9797949109510967
 10
502.75072933112995
 20
-0.999
 10
504.4806818849994
 20
-0.999
 10
504.67567442642826
 20
-0.9797949109510968
 10
504.6759123280509
 20
-0.9797475893761401
 10
505.03621025068514
 20
-0.8305073033254452
 10
505.03637088881595
 20
-0.8303999683579831
 10
505.3121309802235
 20
-0.5546398769422237
 10
505.31223831519105
 20
-0.5544792388113378
 10
505.4614786012198
 20
-0.19418131622895957
 10
505.46152592279486
 20
-0.1939434146061882
 10
505.4806276818734
 20
0.0
 10
504.4817310118491
 20
0.0
 10
504.4817310118491
 20
30.0
 10
505.4806276818734
 20
30.0
 10
505.461525922795
 20
30.19394341460535
 10
505.46147860122005
 20
30.194181316228118
 10
505.31223831518844
 20
30.55447923881517
 10
505.31213098022096
 20
30.554639876946066
 10
505.0363708888183
 20
30.830399968356456
 10
505.0362102506874
 20
30.830507303323916
 10
504.67591232805444
 20
30.979747589375428
 10
504.67567442643184
 20
30.979794910950385
 10
504.4806818849994
 20
30.999000000000002
 10
502.75072933112995
 20
30.999000000000002
 10
502.5557367896975
 20
30.979794910950385
 10
502.5554988880749
 20
30.979747589375428
 10
502.1952009654419
 20
30.830507303323916
 10
502.19504032731106
 20
30.830399968356456
 10
501.9192802359084
 20
30.554639876946066
 10
501.9191729009409
 20
30.55447923881517
 10
501.7699326149093
 20
30.194181316228118
 10
501.76988529333437
 20
30.19394341460535
 10
501.75078353425596
 20
30.0
 10
502.74968020428025
 20
30.0
 10
502.74968020428025
 20
0.0
 10
501.75078353425596
 20
0.0
 10
501.7698852933345
 20
-0.19394341460618825
 10
501.7699326149095
 20
-0.19418131622895962
  0
LWPOLYLINE
  5
43
330
17
100
AcDbEntity
  8
0
100
AcDbPolyline
 90
17
 70
0
 10
333.30600677678643
 20
-6.956708580912725
 10
333.8479386550983
 20
-7.767766952966369
 10
334.65899702715194
 20
-8.309698831278217
 10
335.6157056080647
 20
-8.5
 10
336.5724141889774
 20
-8.309698831278217
 10
337.38347256103106
 20
-7.767766952966369
 10
337.9254044393429
 20
-6.956708580912725
 10
338.1157056080647
 20
-6.0
 10
337.9254044393429
 20
-5.043291419087274
 10
337.38347256103106
 20
-4.232233047033631
 10
336.5724141889774
 20
-3.6903011687217835
 10
335.6157056080647
 20
-3.5
 10
334.65899702715194
 20
-3.690301168721784
 10
333.8479386550983
 20
-4.232233047033631
 10
333.30600677678643
 20
-5.043291419087276
 10
333.1157056080647
 20
-6.0
 10
333.30600677678643
 20
-6.956708580912725
  0
LWPOLYLINE
  5
44
330
17
100
AcDbEntity
  8
0
100
AcDbPolyline
 90
17
 70
0
 10
645.3060067767865
 20
-6.956708580912725
 10
645.8479386550982
 20
-7.767766952966369
 10
646.6589970271519
 20
-8.309698831278217
 10
647.6157056080647
 20
-8.5
 10
648.5724141889774
 20
-8.309698831278217
 10
649.3834725610311
 20
-7.767766952966369
 10
649.9254044393429
 20
-6.956708580912725
 10
650.1157056080647
 20
-6.0
 10
649.9254044393429
 20
-5.043291419087274
 10
649.3834725610311
 20
-4.232233047033631
 10
648.5724141889774
 20
-3.6903011687217835
 10
647.6157056080647
 20
-3.5
 10
646.6589970271519
 20
-3.690301168721784
 10
645.8479386550982
 20
-4.232233047033631
 10
645.3060067767865
 20
-5.043291419087276
 10
645.1157056080647
 20
-6.0
 10
645.3060067767865
 20
-6.956708580912725
  0
LWPOLYLINE
  5
45
330
17
100
AcDbEntity
  8
0
100
AcDbPolyline
 90
17
 70
0
 10
333.30600677678643
 20
35.043291419087275
 10
333.8479386550983
 20
34.23223304703363
 10
334.65899702715194
 20
33.69030116872178
 10
335.6157056080647
 20
33.5
 10
336.5724141889774
 20
33.69030116872178
 10
337.38347256103106
 20
34.23223304703363
 10
337.9254044393429
 20
35.043291419087275
 10
338.1157056080647
 20
36.0
 10
337.9254044393429
 20
36.956708580912725
 10
337.38347256103106
 20
37.76776695296637
 10
336.5724141889774
 20
38.30969883127822
 10
335.6157056080647
 20
38.5
 10
334.65899702715194
 20
38.30969883127822
 10
333.8479386550983
 20
37.76776695296637
 10
333.30600677678643
 20
36.956708580912725
 10
333.1157056080647
 20
36.0
 10
333.30600677678643
 20
35.043291419087275
  0
LWPOLYLINE
  5
46
330
17
100
AcDbEntity
  8
0
100
AcDbPolyline
 90
17
 70
0
 10
645.3060067767865
 20
35.043291419087275
 10
645.8479386550982
 20
34.23223304703363
 10
646.6589970271519
 20
33.69030116872178
 10
647.6157056080647
 20
33.5
 10
648.5724141889774
 20
33.69030116872178
 10
649.3834725610311
 20
34.23223304703363
 10
649.9254044393429
 20
35.043291419087275
 10
650.1157056080647
 20
36.0
 10
649.9254044393429
 20
36.956708580912725
 10
649.3834725610311
 20
37.76776695296637
 10
648.5724141889774
 20
38.30969883127822
 10
647.6157056080647
 20
38.5
 10
646.6589970271519
 20
38.30969883127822
 10
645.8479386550982
 20
37.76776695296637
 10
645.3060067767865
 20
36.956708580912725
 10
645.1157056080647
 20
36.0
 10
645.3060067767865
 20
35.043291419087275
  0
LWPOLYLINE
  5
47
330
17
100
AcDbEntity
  8
0
100
AcDbPolyline
 90
11
 70
0
 10
347.35241654556467
 20
-9.21453125
 10
348.6334790455647
 20
-5.907031249999999
 10
348.19363529556466
 20
-5.907031249999999
 10
347.45926029556466
 20
-8.009375
 10
346.7311352955647
 20
-5.907031249999999
 10
346.2576977955647
 20
-5.907031249999999
 10
347.2420727955647
 20
-8.5046875
 10
346.98960404556465
 20
-9.03078125
 10
346.5477915455647
 20
-9.1109375
 10
346.6915884205647
 20
-9.5474921875
 10
347.35241654556467
 20
-9.21453125
  0
LWPOLYLINE
  5
48
330
17
100
AcDbEntity
  8
0
100
AcDbPolyline
 90
15
 70
0
 10
345.38162357681466
 20
-6.8546875
 10
343.8909985768147
 20
-7.215625
 10
343.61368607681464
 20
-8.05778125
 10
344.15340482681466
 20
-8.52521875
 10
345.13165482681467
 20
-8.3853125
 10
345.4183423268147
 20
-8.18046875
 10
345.5058423268147
 20
-8.5
 10
345.9652173268147
 20
-8.5
 10
345.7747876393147
 20
-6.3196015625
 10
345.2734985768147
 20
-5.8984375
 10
344.23396732681465
 20
-5.940625
 10
343.6527173268147
 20
-6.646875
 10
344.88521732681465
 20
-6.2184375
 10
345.3039673268147
 20
-6.41134375
 10
345.38162357681466
 20
-6.8546875
  0
LWPOLYLINE
  5
49
330
17
100
AcDbEntity
  8
0
100
AcDbPolyline
 90
14
 70
0
 10
349.26625248306465
 20
-6.1414296875
 10
348.86340873306466
 20
-7.09778125
 10
349.19363529556466
 20
-8.20859375
 10
350.18468217056466
 20
-8.5563984375
 10
351.0828931080647
 20
-8.0744140625
 10
351.2358227955647
 20
-7.72109375
 10
350.7819165455647
 20
-7.66484375
 10
350.4018384205647
 20
-8.134859375
 10
349.8002759205647
 20
-8.140234375
 10
349.32150248306465
 20
-7.3990937500000005
 10
351.24832279556466
 20
-7.315625
 10
350.92097904556465
 20
-6.20234375
 10
350.1731352955647
 20
-5.851976562499999
 10
349.26625248306465
 20
-6.1414296875
  0
LWPOLYLINE
  5
4A
330
17
100
AcDbEntity
  8
0
100
AcDbPolyline
 90
10
 70
0
 10
351.78299076431466
 20
-5.907031249999999
 10
351.78299076431466
 20
-8.5
 10
352.2220532643147
 20
-8.5
 10
352.34486576431465
 20
-6.5173125
 10
353.0400220143147
 20
-6.39765625
 10
353.1915845143147
 20
-5.98984375
 10
352.6210220143147
 20
-5.862562499999999
 10
352.2379907643147
 20
-6.197218749999999
 10
352.17830326431465
 20
-5.907031249999999
 10
351.78299076431466
 20
-5.907031249999999
  0
LWPOLYLINE
  5
4B
330
17
100
AcDbEntity
  8
0
100
AcDbPolyline
 90
7
 70
0
 10
343.21804935806466
 20
-8.07734375
 10
341.4555493580647
 20
-8.07734375
 10
341.4555493580647
 20
-4.92109375
 10
340.9821118580647
 20
-4.92109375
 10
340.9821118580647
 20
-8.5
 10
343.21804935806466
 20
-8.5
 10
343.21804935806466
 20
-8.07734375
  0
LWPOLYLINE
  5
4C
330
17
100
AcDbEntity
  8
0
100
AcDbPolyline
 90
12
 70
0
 10
356.56765873306466
 20
-8.5
 10
356.56765873306466
 20
-7.64296875
 10
357.0512524830647
 20
-7.64296875
 10
357.0512524830647
 20
-7.23984375
 10
356.56765873306466
 20
-7.23984375
 10
356.56765873306466
 20
-4.92109375
 10
356.20906498306465
 20
-4.92109375
 10
354.57547123306466
 20
-7.23984375
 10
354.57547123306466
 20
-7.64296875
 10
356.1285962330647
 20
-7.64296875
 10
356.1285962330647
 20
-8.5
 10
356.56765873306466
 20
-8.5
  0
LWPOLYLINE
  5
4D
330
17
100
AcDbEntity
  8
0
100
AcDbPolyline
 90
45
 70
0
 10
571.7698852933345
 20
-0.19394341460618825
 10
571.7699326149095
 20
-0.19418131622895962
 10
571.9191729009383
 20
-0.5544792388113378
 10
571.9192802359058
 20
-0.5546398769422237
 10
572.1950403273133
 20
-0.8303999683579832
 10
572.1952009654442
 20
-0.8305073033254453
 10
572.5554988880784
 20
-0.97974758937614
 10
572.5557367897011
 20
-0.9797949109510967
 10
572.75072933113
 20
-0.999
 10
574.4806818849994
 20
-0.999
 10
574.6756744264283
 20
-0.9797949109510968
 10
574.6759123280509
 20
-0.9797475893761401
 10
575.0362102506851
 20
-0.8305073033254452
 10
575.036370888816
 20
-0.8303999683579831
 10
575.3121309802235
 20
-0.5546398769422237
 10
575.312238315191
 20
-0.5544792388113378
 10
575.4614786012198
 20
-0.19418131622895957
 10
575.4615259227949
 20
-0.1939434146061882
 10
575.4806276818733
 20
0.0
 10
574.4817310118491
 20
0.0
 10
574.4817310118491
 20
30.0
 10
575.4806276818733
 20
30.0
 10
575.461525922795
 20
30.19394341460535
 10
575.46147860122
 20
30.194181316228118
 10
575.3122383151884
 20
30.55447923881517
 10
575.3121309802209
 20
30.554639876946066
 10
575.0363708888183
 20
30.830399968356456
 10
575.0362102506874
 20
30.830507303323916
 10
574.6759123280544
 20
30.979747589375428
 10
574.6756744264319
 20
30.979794910950385
 10
574.4806818849994
 20
30.999000000000002
 10
572.75072933113
 20
30.999000000000002
 10
572.5557367896974
 20
30.979794910950385
 10
572.5554988880749
 20
30.979747589375428
 10
572.1952009654419
 20
30.830507303323916
 10
572.1950403273111
 20
30.830399968356456
 10
571.9192802359084
 20
30.554639876946066
 10
571.9191729009409
 20
30.55447923881517
 10
571.7699326149093
 20
30.194181316228118
 10
571.7698852933344
 20
30.19394341460535
 10
571.750783534256
 20
30.0
 10
572.7496802042803
 20
30.0
 10
572.7496802042803
 20
0.0
 10
571.750783534256
 20
0.0
 10
571.7698852933345
 20
-0.19394341460618825
  0
LWPOLYLINE
  5
4E
330
17
100
AcDbEntity
  8
0
100
AcDbPolyline
 90
45
 70
0
 10
619.7699326148817
 20
-0.19418131608885023
 10
619.919172900972
 20
-0.5544792388616032
 10
619.9192802359396
 20
-0.554639876992705
 10
620.195040327347
 20
-0.8303999683803276
 10
620.1952009654781
 20
-0.8305073033479717
 10
620.5554988880646
 20
-0.9797475893733573
 10
620.5557367896872
 20
-0.9797949109483298
 10
620.7507293311301
 20
-0.999
 10
622.4806818849993
 20
-0.999
 10
622.6756744264421
 20
-0.9797949109483298
 10
622.6759123280648
 20
-0.9797475893733573
 10
623.0362102506513
 20
-0.8305073033479716
 10
623.0363708887824
 20
-0.8303999683803275
 10
623.3121309801897
 20
-0.554639876992705
 10
623.3122383151574
 20
-0.5544792388616032
 10
623.4614786012477
 20
-0.19418131608885017
 10
623.4615259228226
 20
-0.19394341446607924
 10
623.4806276818733
 20
0.0
 10
622.4817310118491
 20
0.0
 10
622.4817310118491
 20
30.0
 10
623.4806276818733
 20
30.0
 10
623.4615259228228
 20
30.193943414465245
 10
623.4614786012478
 20
30.194181316088006
 10
623.3122383151547
 20
30.554479238865664
 10
623.3121309801874
 20
30.554639876996376
 10
623.0363708887846
 20
30.830399968378803
 10
623.0362102506535
 20
30.830507303346444
 10
622.6759123280683
 20
30.979747589372646
 10
622.6756744264457
 20
30.979794910947618
 10
622.4806818849993
 20
30.999000000000002
 10
620.7507293311301
 20
30.999000000000002
 10
620.5557367896837
 20
30.979794910947618
 10
620.555498888061
 20
30.979747589372646
 10
620.1952009654758
 20
30.830507303346444
 10
620.1950403273447
 20
30.830399968378803
 10
619.919280235942
 20
30.554639876996376
 10
619.9191729009747
 20
30.554479238865664
 10
619.7699326148816
 20
30.194181316088006
 10
619.7698852933065
 20
30.193943414465245
 10
619.750783534256
 20
30.0
 10
620.7496802042803
 20
30.0
 10
620.7496802042803
 20
0.0
 10
619.750783534256
 20
0.0
 10
619.7698852933067
 20
-0.1939434144660793
 10
619.7699326148817
 20
-0.19418131608885023
  0
ENDSEC
  0
SECTION
  2
OBJECTS
  0
DICTIONARY
  5
A
330
0
100
AcDbDictionary
280
0
281
1
  3
ACAD_COLOR
350
B
  3
ACAD_GROUP
350
C
  3
ACAD_LAYOUT
350
D
  3
ACAD_MATERIAL
350
E
  3
ACAD_MLEADERSTYLE
350
F
  3
ACAD_MLINESTYLE
350
10
  3
ACAD_PLOTSETTINGS
350
11
  3
ACAD_PLOTSTYLENAME
350
12
  3
ACAD_SCALELIST
350
14
  3
ACAD_TABLESTYLE
350
15
  3
ACAD_VISUALSTYLE
350
16
  3
EZDXF_META
350
2D
  0
DICTIONARY
  5
B
330
A
100
AcDbDictionary
280
0
281
1
  0
DICTIONARY
  5
C
330
A
100
AcDbDictionary
280
0
281
1
  0
DICTIONARY
  5
D
330
A
100
AcDbDictionary
280
0
281
1
  3
Model
350
1A
  3
Layout1
350
1E
  0
DICTIONARY
  5
E
330
A
100
AcDbDictionary
280
0
281
1
  3
ByBlock
350
1F
  3
ByLayer
350
20
  3
Global
350
21
  0
DICTIONARY
  5
F
330
A
100
AcDbDictionary
280
0
281
1
  3
Standard
350
2C
  0
DICTIONARY
  5
10
330
A
100
AcDbDictionary
280
0
281
1
  3
Standard
350
22
  0
DICTIONARY
  5
11
330
A
100
AcDbDictionary
280
0
281
1
  0
ACDBDICTIONARYWDFLT
  5
12
330
A
100
AcDbDictionary
280
0
281
1
  3
Normal
350
13
100
AcDbDictionaryWithDefault
340
13
  0
ACDBPLACEHOLDER
  5
13
330
12
  0
DICTIONARY
  5
14
330
A
100
AcDbDictionary
280
0
281
1
  0
DICTIONARY
  5
15
330
A
100
AcDbDictionary
280
0
281
1
  0
DICTIONARY
  5
16
330
A
100
AcDbDictionary
280
0
281
1
  0
LAYOUT
  5
1A
330
D
100
AcDbPlotSettings
  1

  4
A3
  6

 40
7.5
 41
20.0
 42
7.5
 43
20.0
 44
420.0
 45
297.0
 46
0.0
 47
0.0
 48
0.0
 49
0.0
140
0.0
141
0.0
142
1.0
143
1.0
 70
1024
 72
1
 73
0
 74
5
  7

 75
16
 76
0
 77
2
 78
300
147
1.0
148
0.0
149
0.0
100
AcDbLayout
  1
Model
 70
1
 71
0
 10
0.0
 20
0.0
 11
420.0
 21
297.0
 12
0.0
 22
0.0
 32
0.0
 14
1e+20
 24
1e+20
 34
1e+20
 15
-1e+20
 25
-1e+20
 35
-1e+20
146
0.0
 13
0.0
 23
0.0
 33
0.0
 16
1.0
 26
0.0
 36
0.0
 17
0.0
 27
1.0
 37
0.0
 76
1
330
17
  0
LAYOUT
  5
1E
330
D
100
AcDbPlotSettings
  1

  4
A3
  6

 40
7.5
 41
20.0
 42
7.5
 43
20.0
 44
420.0
 45
297.0
 46
0.0
 47
0.0
 48
0.0
 49
0.0
140
0.0
141
0.0
142
1.0
143
1.0
 70
0
 72
1
 73
0
 74
5
  7

 75
16
 76
0
 77
2
 78
300
147
1.0
148
0.0
149
0.0
100
AcDbLayout
  1
Layout1
 70
1
 71
1
 10
0.0
 20
0.0
 11
420.0
 21
297.0
 12
0.0
 22
0.0
 32
0.0
 14
1e+20
 24
1e+20
 34
1e+20
 15
-1e+20
 25
-1e+20
 35
-1e+20
146
0.0
 13
0.0
 23
0.0
 33
0.0
 16
1.0
 26
0.0
 36
0.0
 17
0.0
 27
1.0
 37
0.0
 76
1
330
1B
  0
MATERIAL
  5
1F
102
{ACAD_REACTORS
330
E
102
}
330
E
100
AcDbMaterial
  1
ByBlock
  2

 70
0
 40
1.0
 71
1
 41
1.0
 91
-1023410177
 42
1.0
 72
1
  3

 73
1
 74
1
 75
1
 44
0.5
 73
0
 45
1.0
 46
1.0
 77
1
  4

 78
1
 79
1
170
1
 48
1.0
171
1
  6

172
1
173
1
174
1
140
1.0
141
1.0
175
1
  7

176
1
177
1
178
1
143
1.0
179
1
  8

270
1
271
1
272
1
145
1.0
146
1.0
273
1
  9

274
1
275
1
276
1
 42
1.0
 72
1
  3

 73
1
 74
1
 75
1
 94
63
  0
MATERIAL
  5
20
102
{ACAD_REACTORS
330
E
102
}
330
E
100
AcDbMaterial
  1
ByLayer
  2

 70
0
 40
1.0
 71
1
 41
1.0
 91
-1023410177
 42
1.0
 72
1
  3

 73
1
 74
1
 75
1
 44
0.5
 73
0
 45
1.0
 46
1.0
 77
1
  4

 78
1
 79
1
170
1
 48
1.0
171
1
  6

172
1
173
1
174
1
140
1.0
141
1.0
175
1
  7

176
1
177
1
178
1
143
1.0
179
1
  8

270
1
271
1
272
1
145
1.0
146
1.0
273
1
  9

274
1
275
1
276
1
 42
1.0
 72
1
  3

 73
1
 74
1
 75
1
 94
63
  0
MATERIAL
  5
21
102
{ACAD_REACTORS
330
E
102
}
330
E
100
AcDbMaterial
  1
Global
  2

 70
0
 40
1.0
 71
1
 41
1.0
 91
-1023410177
 42
1.0
 72
1
  3

 73
1
 74
1
 75
1
 44
0.5
 73
0
 45
1.0
 46
1.0
 77
1
  4

 78
1
 79
1
170
1
 48
1.0
171
1
  6

172
1
173
1
174
1
140
1.0
141
1.0
175
1
  7

176
1
177
1
178
1
143
1.0
179
1
  8

270
1
271
1
272
1
145
1.0
146
1.0
273
1
  9

274
1
275
1
276
1
 42
1.0
 72
1
  3

 73
1
 74
1
 75
1
 94
63
  0
MLINESTYLE
  5
22
102
{ACAD_REACTORS
330
10
102
}
330
10
100
AcDbMlineStyle
  2
Standard
 70
0
  3

 62
256
 51
90.0
 52
90.0
 71
2
 49
0.5
 62
256
  6
BYLAYER
 49
-0.5
 62
256
  6
BYLAYER
  0
MLEADERSTYLE
  5
2C
102
{ACAD_REACTORS
330
F
102
}
330
F
100
AcDbMLeaderStyle
179
2
170
2
171
1
172
0
 90
2
 40
0.0
 41
0.0
173
1
 91
-1056964608
 92
-2
290
1
 42
2.0
291
1
 43
8.0
  3
Standard
 44
4.0
300

342
29
174
1
175
1
176
0
178
1
 93
-1056964608
 45
4.0
292
0
297
0
 46
4.0
 94
-1056964608
 47
1.0
 49
1.0
140
1.0
294
1
141
0.0
177
0
142
1.0
295
0
296
0
143
3.75
271
0
272
9
273
9
  0
DICTIONARY
  5
2D
330
A
100
AcDbDictionary
281
1
  3
CREATED_BY_EZDXF
350
2E
  3
WRITTEN_BY_EZDXF
350
51
  0
DICTIONARYVAR
  5
2E
330
2D
100
DictionaryVariables
280
0
  1
1.3.4 @ 2024-12-02T17:32:14.580870+00:00
  0
DICTIONARYVAR
  5
51
330
2D
100
DictionaryVariables
280
0
  1
1.3.4 @ 2024-12-02T17:32:14.593585+00:00
  0
ENDSEC
  0
EOF
